<svg width="25" height="24" viewBox="0 0 25 24" fill="none" xmlns="http://www.w3.org/2000/svg">
<path d="M21.2891 10.2306C21.2891 4.68749 16.5625 0.186005 10.7422 0.186005C4.92188 0.186005 0.195312 4.68749 0.195312 10.2306C0.195312 15.7738 4.92188 20.2753 10.7422 20.2753C13.3789 20.2753 15.7812 19.3452 17.6172 17.8385L22.5781 22.5632L23.6914 21.503L18.7305 16.7783C20.3125 15.0298 21.2891 12.7418 21.2891 10.2306ZM10.7422 18.7872C5.78125 18.7872 1.75781 14.9553 1.75781 10.2306C1.75781 5.50595 5.78125 1.6741 10.7422 1.6741C15.7031 1.6741 19.7266 5.50595 19.7266 10.2306C19.7266 14.9553 15.7031 18.7872 10.7422 18.7872Z" fill="white"/>
<path d="M5 5.74777L6.21094 6.69643C7.32422 5.39434 8.98438 4.6503 10.7422 4.6503V3.1622C8.51562 3.1622 6.42578 4.11086 5 5.74777ZM3.32031 10.2307H4.88281C4.88281 9.84003 4.92188 9.46801 5 9.09598L3.47656 8.79836C3.37891 9.26339 3.32031 9.74702 3.32031 10.2307Z" fill="white"/>
</svg>
