<?xml version="1.0" ?><!DOCTYPE svg  PUBLIC '-//W3C//DTD SVG 1.1//EN'  'http://www.w3.org/Graphics/SVG/1.1/DTD/svg11.dtd'><svg enable-background="new 0 0 128 128" height="128px" version="1.1" viewBox="0 0 128 128" width="128px" xml:space="preserve" xmlns="http://www.w3.org/2000/svg" xmlns:xlink="http://www.w3.org/1999/xlink"><g id="OBJECT"><g><g><path d="M72.207,108.737c-0.512,0-1.023-0.195-1.414-0.586L28.052,65.414c-0.375-0.375-0.586-0.884-0.586-1.414     s0.211-1.039,0.586-1.414l42.74-42.736c0.781-0.781,2.047-0.781,2.828,0s0.781,2.047,0,2.828L32.294,64l41.327,41.323     c0.781,0.781,0.781,2.047,0,2.828C73.23,108.542,72.719,108.737,72.207,108.737z"/></g><g><path d="M98.534,108.737c-0.512,0-1.023-0.195-1.414-0.586L54.379,65.414c-0.375-0.375-0.586-0.884-0.586-1.414     s0.211-1.039,0.586-1.414l42.74-42.736c0.781-0.781,2.047-0.781,2.828,0s0.781,2.047,0,2.828L58.621,64l41.327,41.323     c0.781,0.781,0.781,2.047,0,2.828C99.558,108.542,99.046,108.737,98.534,108.737z"/></g></g></g></svg>